<?xml version="1.0" encoding="UTF-8"?><svg id="Layer_1" xmlns="http://www.w3.org/2000/svg" viewBox="0 0 576.66 160.18"><defs><style>.cls-1{fill:#e81f2f;}.cls-2{fill:#8db7e1;}.cls-3{fill:#415464;}</style></defs><g><g><g><rect class="cls-3" x="174.17" y="29.07" width="14.06" height="14.06" rx="2.19" ry="2.19"/><rect class="cls-3" x="190.71" y="62.15" width="14.06" height="14.06" rx="2.19" ry="2.19"/><rect class="cls-3" x="157.63" y="12.52" width="14.06" height="14.06" rx="2.19" ry="2.19"/><rect class="cls-3" x="141.09" y="62.15" width="14.06" height="14.06" rx="2.19" ry="2.19"/><rect class="cls-3" x="141.09" y="29.07" width="14.06" height="14.06" rx="2.19" ry="2.19"/><rect class="cls-3" x="124.55" y="45.61" width="14.06" height="14.06" rx="2.19" ry="2.19"/><rect class="cls-3" x="108" y="29.07" width="14.06" height="14.06" rx="2.19" ry="2.19"/><rect class="cls-3" x="73.37" y="62.15" width="14.06" height="14.06" rx="2.19" ry="2.19"/><rect class="cls-3" x="10.7" y="45.61" width="14.06" height="14.06" rx="2.19" ry="2.19"/></g><g><rect class="cls-3" x="477.69" y="29.07" width="14.06" height="14.06" rx="2.19" ry="2.19" transform="translate(969.43 72.19) rotate(180)"/><rect class="cls-3" x="393.43" y="62.15" width="14.06" height="14.06" rx="2.19" ry="2.19" transform="translate(800.92 138.36) rotate(180)"/><rect class="cls-3" x="376.89" y="45.61" width="14.06" height="14.06" rx="2.19" ry="2.19" transform="translate(767.83 105.27) rotate(180)"/><rect class="cls-3" x="409.97" y="29.07" width="14.06" height="14.06" rx="2.19" ry="2.19" transform="translate(834 72.19) rotate(180)"/><rect class="cls-3" x="426.51" y="45.61" width="14.06" height="14.06" rx="2.19" ry="2.19" transform="translate(867.08 105.27) rotate(180)"/><rect class="cls-3" x="459.59" y="62.15" width="14.06" height="14.06" rx="2.19" ry="2.19" transform="translate(933.24 138.36) rotate(180)"/><rect class="cls-3" x="459.59" y="29.07" width="14.06" height="14.06" rx="2.19" ry="2.19" transform="translate(933.24 72.19) rotate(180)"/><rect class="cls-3" x="494.23" y="62.15" width="14.06" height="14.06" rx="2.19" ry="2.19" transform="translate(1002.51 138.36) rotate(180)"/><rect class="cls-3" x="409.97" y="62.15" width="14.06" height="14.06" rx="2.19" ry="2.19" transform="translate(834 138.36) rotate(180)"/><rect class="cls-3" x="393.43" y="12.52" width="14.06" height="14.06" rx="2.19" ry="2.19" transform="translate(800.92 39.11) rotate(180)"/><rect class="cls-3" x="510.77" y="62.15" width="14.06" height="14.06" rx="2.19" ry="2.19" transform="translate(1035.6 138.36) rotate(180)"/></g></g><path class="cls-3" d="M346.34,11.77h-48.59l-.91,44.39c2.65-.91,5.39-1.63,8.23-2.16,2.84-.53,5.66-.79,8.46-.79,2.2,0,4.39,.19,6.59,.57,2.19,.38,4.18,1.08,5.96,2.1,1.78,1.02,3.22,2.38,4.31,4.09,1.1,1.7,1.65,3.88,1.65,6.53,0,3.48-1.08,6.36-3.24,8.63-2.16,2.27-5.05,3.4-8.68,3.4-2.95,0-5.41-.89-7.38-2.67-1.97-1.78-3.18-4.1-3.63-6.98l-17.82,4.09c1.74,6.89,4.96,12.03,9.65,15.44,4.69,3.4,10.52,5.11,17.48,5.11,4.39,0,8.46-.64,12.2-1.93,3.75-1.29,6.98-3.16,9.71-5.62,2.72-2.46,4.86-5.47,6.41-9.03,1.55-3.56,2.33-7.61,2.33-12.15,0-4.09-.68-7.78-2.04-11.07-1.36-3.29-3.28-6.09-5.73-8.4-2.46-2.31-5.39-4.07-8.8-5.28-3.4-1.21-7.15-1.82-11.24-1.82-3.03,0-5.41,.3-7.15,.91l.34-12.38h31.9V11.77Zm-114.66,80.38h56.08v-14.99h-35.65l24.41-21c1.51-1.36,2.91-2.76,4.2-4.2,1.29-1.44,2.4-3.01,3.35-4.71,.95-1.7,1.68-3.59,2.21-5.68,.53-2.08,.79-4.41,.79-6.98,0-4.01-.66-7.53-1.99-10.56-1.33-3.03-3.16-5.54-5.51-7.55-2.35-2-5.11-3.52-8.29-4.54-3.18-1.02-6.58-1.53-10.22-1.53-3.94,0-7.59,.51-10.96,1.53-3.37,1.02-6.3,2.55-8.8,4.6-2.5,2.04-4.5,4.6-6.02,7.66-1.51,3.07-2.38,6.68-2.61,10.84l17.03,1.25c.23-2.88,1.23-5.3,3.01-7.27,1.78-1.97,4.26-2.95,7.44-2.95,2.65,0,4.96,.78,6.93,2.33,1.97,1.55,2.95,3.69,2.95,6.41,0,2.42-.79,4.54-2.38,6.36-1.59,1.82-3.18,3.45-4.77,4.88l-31.22,28.04v18.05Z"/></g><g><g><rect class="cls-2" x="145.16" y="16.25" width="21.88" height="21.88" rx="2.36" ry="2.36"/><rect class="cls-2" x="148.42" y="44.96" width="15.36" height="15.36" rx="1.65" ry="1.65"/><rect class="cls-2" x="170.6" y="41.7" width="21.88" height="21.88" rx="2.36" ry="2.36"/><rect class="cls-2" x="170.6" y="67.14" width="21.88" height="21.88" rx="2.36" ry="2.36"/><rect class="cls-2" x="72.08" y="19.51" width="15.36" height="15.36" rx="1.65" ry="1.65"/><rect class="cls-2" x="199.32" y="44.96" width="15.36" height="15.36" rx="1.65" ry="1.65"/><rect class="cls-2" x="199.96" y="20.16" width="14.06" height="14.06" rx="2.19" ry="2.19"/><rect class="cls-2" x="94.26" y="41.7" width="21.88" height="21.88" rx="2.36" ry="2.36"/><rect class="cls-2" x="43.36" y="41.7" width="21.88" height="21.88" rx="2.36" ry="2.36"/></g><g><rect class="cls-2" x="553.19" y="45.61" width="14.06" height="14.06" rx="1.51" ry="1.51" transform="translate(1120.45 105.28) rotate(180)"/><rect class="cls-2" x="389.17" y="41.7" width="21.88" height="21.88" rx="2.36" ry="2.36" transform="translate(800.22 105.28) rotate(180)"/><rect class="cls-2" x="417.88" y="19.51" width="15.36" height="15.36" rx="1.65" ry="1.65" transform="translate(851.12 54.38) rotate(180)"/><rect class="cls-2" x="444.33" y="71.41" width="13.35" height="13.35" rx="1.44" ry="1.44" transform="translate(902.01 156.17) rotate(180)"/><rect class="cls-2" x="366.99" y="70.41" width="15.36" height="15.36" rx="1.65" ry="1.65" transform="translate(749.33 156.17) rotate(180)"/><rect class="cls-2" x="494.87" y="20.16" width="14.06" height="14.06" rx="2.19" ry="2.19" transform="translate(1003.81 54.38) rotate(180)"/><rect class="cls-2" x="440.07" y="41.7" width="21.88" height="21.88" rx="2.36" ry="2.36" transform="translate(902.01 105.28) rotate(180)"/><rect class="cls-2" x="363.72" y="16.25" width="21.88" height="21.88" rx="2.36" ry="2.36" transform="translate(749.33 54.38) rotate(180)"/><rect class="cls-2" x="468.78" y="19.51" width="15.36" height="15.36" rx="1.65" ry="1.65" transform="translate(952.91 54.38) rotate(180)"/><rect class="cls-2" x="465.51" y="41.7" width="21.88" height="21.88" rx="2.36" ry="2.36" transform="translate(952.91 105.28) rotate(180)"/><rect class="cls-2" x="519.67" y="44.96" width="15.36" height="15.36" rx="1.65" ry="1.65" transform="translate(1054.7 105.28) rotate(180)"/><rect class="cls-2" x="418.88" y="71.41" width="13.35" height="13.35" rx="1.44" ry="1.44" transform="translate(851.12 156.17) rotate(180)"/></g></g><g><path class="cls-3" d="M30.21,126.22c-.44-.51-1-.92-1.65-1.22-.66-.3-1.42-.45-2.27-.45-1.52,0-2.8,.45-3.79,1.33-.99,.88-1.63,2.19-1.91,3.9l-.04,.24,2.89,.31,.03-.22c.14-.94,.45-1.66,.91-2.15,.45-.48,1.02-.72,1.72-.72,.8,0,1.37,.29,1.75,.89,.39,.63,.59,1.39,.59,2.25,0,.76-.18,1.54-.52,2.31-.36,.79-.87,1.63-1.52,2.51l-5.67,7.7-.05,.06v2.68h10.6v-2.72h-7.08l4.2-5.73c.43-.57,.84-1.15,1.22-1.71,.37-.55,.71-1.1,.99-1.66,.28-.56,.51-1.13,.68-1.7,.17-.58,.25-1.21,.25-1.88,0-.78-.12-1.53-.34-2.22-.23-.7-.57-1.3-1.01-1.81Z"/><path class="cls-3" d="M44.26,134.23c-.45-.58-1.02-1.04-1.7-1.37-.68-.33-1.47-.5-2.36-.5-.32,0-.69,.05-1.1,.13-.27,.06-.52,.13-.75,.22l.21-5.08h6.37v-2.72h-9.02l-.3,11.03,.36-.21c.44-.26,.99-.47,1.63-.65,1.94-.53,3.35-.27,4.2,.84,.58,.75,.87,1.79,.87,3.11s-.27,2.38-.8,3.15c-.52,.75-1.2,1.12-2.06,1.12-.67,0-1.23-.2-1.69-.62-.47-.42-.84-.99-1.1-1.7l-.08-.21-2.63,.89,.06,.21c.39,1.32,1.07,2.35,2.01,3.07,.94,.72,2.11,1.08,3.48,1.08,.83,0,1.61-.16,2.31-.48,.71-.32,1.32-.79,1.83-1.39,.5-.6,.9-1.35,1.19-2.22,.28-.87,.43-1.87,.43-2.98,0-.95-.11-1.84-.34-2.64-.23-.81-.57-1.51-1.01-2.08Z"/><polygon class="cls-3" points="58.8 134.03 55.43 124.92 52.11 124.92 57.27 137.37 57.27 145.66 60.31 145.66 60.31 137.37 65.52 124.92 62.26 124.92 58.8 134.03"/><polygon class="cls-3" points="70.01 136.21 75.66 136.21 75.66 133.6 70.01 133.6 70.01 127.67 76.06 127.67 76.06 124.92 67.06 124.92 67.06 145.66 76.34 145.66 76.34 142.88 70.01 142.88 70.01 136.21"/><path class="cls-3" d="M86.17,124.92h-3.77l-5.21,20.74h3.08l1.18-4.75h5.51l1.15,4.75h3.17l-5.05-20.56-.04-.18Zm.33,13.49h-4.6l2.34-10.07,2.26,10.07Z"/><path class="cls-3" d="M102.01,135.6c.42-.26,.82-.62,1.17-1.07,.35-.44,.64-.99,.86-1.63,.22-.63,.33-1.38,.33-2.22,0-1.02-.15-1.91-.45-2.64-.3-.73-.71-1.34-1.24-1.8-.52-.46-1.14-.8-1.82-1.01-.68-.21-1.41-.31-2.18-.31h-5.49v20.74h2.98v-9.05h1.96l3.38,8.9,.06,.15h3.28l-3.84-9.61c.32-.09,.65-.25,.99-.45Zm-5.82-8.07h2.09c.38,0,.77,.05,1.15,.15,.36,.1,.69,.27,.96,.51,.28,.25,.51,.58,.69,.98,.18,.41,.27,.95,.27,1.6,0,1.08-.28,1.92-.82,2.5-.55,.58-1.27,.86-2.18,.86h-2.15v-6.61Z"/><path class="cls-3" d="M110.38,127.97c.26-.25,.56-.44,.87-.55,.33-.11,.66-.17,1-.17,1.16,0,2.05,.44,2.74,1.34l.17,.23,1.85-2.2-.12-.15c-.54-.68-1.22-1.19-2.02-1.53-.8-.34-1.71-.5-2.71-.5-.69,0-1.38,.12-2.05,.36-.68,.24-1.29,.61-1.81,1.11-.53,.5-.96,1.13-1.27,1.88-.32,.75-.48,1.64-.48,2.64,0,.84,.12,1.59,.35,2.21,.23,.63,.55,1.18,.94,1.63,.39,.45,.84,.85,1.35,1.2,.49,.34,1.03,.65,1.59,.92,.45,.22,.87,.47,1.25,.72,.37,.25,.71,.52,1.01,.83,.28,.29,.51,.63,.67,.99,.16,.36,.24,.79,.24,1.27,0,1.02-.26,1.81-.77,2.33-.51,.53-1.15,.79-1.95,.79-.63,0-1.27-.16-1.89-.46-.62-.31-1.15-.74-1.57-1.28l-.18-.23-1.82,2.23,.11,.14c.57,.73,1.35,1.33,2.3,1.77,.95,.44,1.97,.67,3.03,.67,.79,0,1.54-.14,2.23-.42,.69-.28,1.31-.68,1.81-1.2,.51-.52,.91-1.16,1.21-1.93,.3-.76,.45-1.62,.45-2.56,0-.85-.14-1.6-.41-2.25-.27-.64-.62-1.21-1.06-1.69-.43-.47-.92-.88-1.45-1.23-.52-.34-1.06-.64-1.6-.91-.41-.2-.8-.43-1.15-.66-.35-.23-.65-.48-.92-.77-.26-.27-.46-.59-.62-.94-.15-.34-.23-.76-.23-1.24,0-.56,.08-1.04,.24-1.43,.16-.39,.37-.72,.63-.97Z"/><path class="cls-3" d="M136.91,127.45c-.62-.95-1.38-1.7-2.25-2.22-.88-.53-1.9-.79-3.03-.79s-2.18,.27-3.08,.79c-.9,.52-1.66,1.27-2.27,2.22-.6,.94-1.07,2.1-1.38,3.42-.31,1.32-.46,2.8-.46,4.39s.16,3.07,.48,4.39c.32,1.33,.79,2.48,1.4,3.44,.62,.96,1.38,1.72,2.26,2.25,.89,.54,1.91,.81,3.04,.81s2.14-.27,3.03-.81c.87-.53,1.63-1.29,2.25-2.25,.61-.95,1.09-2.11,1.4-3.44,.32-1.32,.48-2.8,.48-4.39s-.16-3.07-.48-4.39c-.32-1.33-.79-2.48-1.4-3.42Zm-5.28,15.86c-.66,0-1.22-.19-1.72-.59-.51-.41-.93-.97-1.27-1.68-.34-.72-.6-1.59-.77-2.57-.17-.99-.25-2.07-.25-3.2s.08-2.2,.25-3.2c.17-.99,.43-1.85,.77-2.58,.34-.71,.76-1.27,1.27-1.68,.5-.4,1.06-.59,1.72-.59s1.19,.19,1.67,.59c.5,.41,.92,.97,1.25,1.68,.34,.72,.61,1.59,.78,2.58,.18,1,.27,2.07,.27,3.19s-.09,2.2-.27,3.2c-.18,.99-.44,1.85-.78,2.58-.33,.71-.76,1.27-1.25,1.68-.49,.4-1.03,.59-1.67,.59Z"/><polygon class="cls-3" points="141.91 145.66 144.95 145.66 144.95 136.49 150.48 136.49 150.48 133.8 144.95 133.8 144.95 127.73 150.91 127.73 150.91 124.92 141.91 124.92 141.91 145.66"/><polygon class="cls-3" points="161.91 136.21 167.55 136.21 167.55 133.6 161.91 133.6 161.91 127.67 167.95 127.67 167.95 124.92 158.95 124.92 158.95 145.66 168.24 145.66 168.24 142.88 161.91 142.88 161.91 136.21"/><path class="cls-3" d="M174.24,127.97c.26-.25,.56-.44,.87-.55,.33-.11,.66-.17,1-.17,1.16,0,2.05,.44,2.74,1.34l.17,.23,1.85-2.2-.12-.15c-.54-.68-1.22-1.19-2.02-1.53-.8-.34-1.71-.5-2.71-.5-.69,0-1.38,.12-2.05,.36-.68,.24-1.29,.61-1.81,1.11-.53,.5-.96,1.13-1.27,1.88-.32,.75-.48,1.64-.48,2.64,0,.84,.12,1.59,.35,2.21,.23,.63,.55,1.18,.94,1.63,.39,.45,.84,.85,1.35,1.2,.49,.34,1.03,.65,1.59,.92,.45,.22,.87,.47,1.25,.72,.37,.25,.71,.52,1.01,.83,.28,.29,.51,.63,.67,.99,.16,.36,.24,.79,.24,1.27,0,1.02-.26,1.81-.77,2.33-.51,.53-1.15,.79-1.95,.79-.63,0-1.27-.16-1.89-.46-.62-.31-1.15-.74-1.57-1.28l-.18-.23-1.82,2.23,.11,.14c.57,.73,1.35,1.33,2.3,1.77,.95,.44,1.97,.67,3.03,.67,.79,0,1.54-.14,2.23-.42,.69-.28,1.31-.68,1.81-1.2,.51-.52,.91-1.16,1.21-1.93,.3-.76,.45-1.62,.45-2.56,0-.85-.14-1.6-.41-2.25-.27-.64-.62-1.21-1.06-1.69-.43-.47-.92-.88-1.45-1.23-.52-.34-1.06-.64-1.6-.91-.41-.2-.8-.43-1.15-.66-.35-.23-.65-.48-.92-.77-.26-.27-.46-.59-.62-.94-.15-.34-.23-.76-.23-1.24,0-.56,.08-1.04,.24-1.43,.16-.39,.37-.72,.63-.97Z"/><path class="cls-3" d="M186.84,127.97c.26-.25,.56-.44,.87-.55,.33-.11,.66-.17,1-.17,1.16,0,2.05,.44,2.74,1.34l.17,.23,1.85-2.2-.12-.15c-.54-.68-1.22-1.19-2.02-1.53-.8-.34-1.71-.5-2.71-.5-.69,0-1.38,.12-2.05,.36-.68,.24-1.29,.61-1.81,1.11-.53,.5-.96,1.13-1.27,1.88-.32,.75-.48,1.64-.48,2.64,0,.84,.12,1.59,.35,2.21,.23,.63,.55,1.18,.94,1.63,.39,.45,.84,.85,1.35,1.2,.49,.34,1.03,.65,1.59,.92,.45,.22,.87,.47,1.25,.72,.37,.25,.71,.52,1.01,.83,.28,.29,.51,.63,.67,.99,.16,.36,.24,.79,.24,1.27,0,1.02-.26,1.81-.77,2.33-.51,.53-1.15,.79-1.95,.79-.63,0-1.27-.16-1.89-.46-.62-.31-1.15-.74-1.57-1.28l-.18-.23-1.82,2.23,.11,.14c.57,.73,1.35,1.33,2.3,1.77,.95,.44,1.97,.67,3.03,.67,.79,0,1.54-.14,2.23-.42,.69-.28,1.31-.68,1.81-1.2,.51-.52,.91-1.16,1.21-1.93,.3-.76,.45-1.62,.45-2.56,0-.85-.14-1.6-.41-2.25-.27-.64-.62-1.21-1.06-1.69-.43-.47-.92-.88-1.45-1.23-.52-.34-1.06-.64-1.6-.91-.41-.2-.8-.43-1.15-.66-.35-.23-.65-.48-.92-.77-.26-.27-.46-.59-.62-.94-.15-.34-.23-.76-.23-1.24,0-.56,.08-1.04,.24-1.43,.16-.39,.37-.72,.63-.97Z"/><polygon class="cls-3" points="199.31 136.21 204.95 136.21 204.95 133.6 199.31 133.6 199.31 127.67 205.35 127.67 205.35 124.92 196.35 124.92 196.35 145.66 205.64 145.66 205.64 142.88 199.31 142.88 199.31 136.21"/><polygon class="cls-3" points="218.12 139.93 212.03 124.92 208.55 124.92 208.55 145.66 211.39 145.66 211.39 130.66 217.56 145.66 220.96 145.66 220.96 124.92 218.12 124.92 218.12 139.93"/><polygon class="cls-3" points="222.73 127.59 226.59 127.59 226.59 145.66 229.63 145.66 229.63 127.59 233.5 127.59 233.5 124.92 222.73 124.92 222.73 127.59"/><rect class="cls-3" x="235.24" y="124.92" width="3.04" height="20.74"/><path class="cls-3" d="M249.2,124.92h-3.77l-5.21,20.74h3.08l1.18-4.75h5.51l1.15,4.75h3.17l-5.05-20.56-.04-.18Zm.33,13.49h-4.6l2.34-10.07,2.26,10.07Z"/><polygon class="cls-3" points="259.27 124.92 256.23 124.92 256.23 145.66 265 145.66 265 142.79 259.27 142.79 259.27 124.92"/><polygon class="cls-3" points="275.31 136.21 280.95 136.21 280.95 133.6 275.31 133.6 275.31 127.67 281.35 127.67 281.35 124.92 272.35 124.92 272.35 145.66 281.64 145.66 281.64 142.88 275.31 142.88 275.31 136.21"/><polygon class="cls-3" points="295.66 124.92 292.48 124.92 289.31 132.14 286.14 125.06 286.08 124.92 282.84 124.92 287.56 134.72 282.33 145.66 285.56 145.66 289.22 137.46 292.82 145.52 292.88 145.66 296.21 145.66 290.94 134.75 295.66 124.92"/><path class="cls-3" d="M307.12,126.18c-.54-.46-1.15-.79-1.82-.98-.66-.19-1.31-.28-1.94-.28h-5.37v20.74h3.04v-8.68h2.52c.71,0,1.4-.13,2.05-.39,.64-.26,1.23-.65,1.74-1.15,.51-.51,.92-1.16,1.21-1.93,.3-.77,.45-1.67,.45-2.66,0-1.12-.18-2.07-.52-2.83-.35-.76-.8-1.38-1.34-1.84Zm-6.1,1.41h2.08c.86,0,1.53,.26,2.06,.78,.52,.52,.78,1.36,.78,2.51s-.27,2.06-.79,2.64c-.53,.58-1.2,.86-2.05,.86h-2.08v-6.78Z"/><polygon class="cls-3" points="314.54 136.21 320.18 136.21 320.18 133.6 314.54 133.6 314.54 127.67 320.58 127.67 320.58 124.92 311.58 124.92 311.58 145.66 320.87 145.66 320.87 142.88 314.54 142.88 314.54 136.21"/><path class="cls-3" d="M332.59,135.6c.42-.26,.82-.62,1.17-1.07,.35-.44,.64-.99,.86-1.63,.22-.63,.33-1.38,.33-2.22,0-1.02-.15-1.91-.45-2.64-.3-.73-.71-1.34-1.24-1.8-.52-.46-1.14-.8-1.82-1.01-.68-.21-1.41-.31-2.18-.31h-5.49v20.74h2.98v-9.05h1.96l3.38,8.9,.06,.15h3.28l-3.84-9.61c.32-.09,.65-.25,.99-.45Zm-5.82-8.07h2.09c.38,0,.77,.05,1.15,.15,.36,.1,.69,.27,.96,.51,.28,.25,.51,.58,.69,.98,.18,.41,.27,.95,.27,1.6,0,1.08-.28,1.92-.82,2.5-.55,.58-1.27,.86-2.18,.86h-2.15v-6.61Z"/><polygon class="cls-3" points="335.15 127.59 339.02 127.59 339.02 145.66 342.06 145.66 342.06 127.59 345.92 127.59 345.92 124.92 335.15 124.92 335.15 127.59"/><rect class="cls-3" x="347.67" y="124.92" width="3.04" height="20.74"/><path class="cls-3" d="M357.79,127.97c.26-.25,.56-.44,.87-.55,.33-.11,.66-.17,1-.17,1.16,0,2.05,.44,2.74,1.34l.17,.23,1.85-2.2-.12-.15c-.54-.68-1.22-1.19-2.02-1.53-.8-.34-1.71-.5-2.71-.5-.69,0-1.38,.12-2.05,.36-.68,.24-1.29,.61-1.81,1.11-.53,.5-.96,1.13-1.27,1.88-.32,.75-.48,1.64-.48,2.64,0,.84,.12,1.59,.35,2.21,.23,.63,.55,1.18,.94,1.63,.39,.45,.84,.85,1.35,1.2,.49,.34,1.03,.65,1.59,.92,.45,.22,.87,.47,1.25,.72,.37,.25,.71,.52,1.01,.83,.28,.29,.51,.63,.67,.99,.16,.36,.24,.79,.24,1.27,0,1.02-.26,1.81-.77,2.33-.51,.53-1.15,.79-1.95,.79-.63,0-1.27-.16-1.89-.46-.62-.31-1.15-.74-1.57-1.28l-.18-.23-1.82,2.23,.11,.14c.57,.73,1.35,1.33,2.3,1.77,.95,.44,1.97,.67,3.03,.67,.79,0,1.54-.14,2.23-.42,.69-.28,1.31-.68,1.81-1.2,.51-.52,.91-1.16,1.21-1.93,.3-.76,.45-1.62,.45-2.56,0-.85-.14-1.6-.41-2.25-.27-.64-.62-1.21-1.06-1.69-.43-.47-.92-.88-1.45-1.23-.52-.34-1.06-.64-1.6-.91-.41-.2-.8-.43-1.15-.66-.35-.23-.65-.48-.92-.77-.26-.27-.46-.59-.62-.94-.15-.34-.23-.76-.23-1.24,0-.56,.08-1.04,.24-1.43,.16-.39,.37-.72,.63-.97Z"/><polygon class="cls-3" points="370.27 136.21 375.91 136.21 375.91 133.6 370.27 133.6 370.27 127.67 376.31 127.67 376.31 124.92 367.31 124.92 367.31 145.66 376.59 145.66 376.59 142.88 370.27 142.88 370.27 136.21"/><polygon class="cls-3" points="437.04 133.8 431.51 133.8 431.51 127.73 437.47 127.73 437.47 124.92 428.47 124.92 428.47 145.66 431.51 145.66 431.51 136.49 437.04 136.49 437.04 133.8"/><path class="cls-3" d="M445.44,124.92h-3.77l-5.21,20.74h3.08l1.18-4.75h5.51l1.15,4.75h3.17l-5.05-20.56-.04-.18Zm.33,13.49h-4.6l2.34-10.07,2.26,10.07Z"/><path class="cls-3" d="M464.16,126.98h0c-.57-.86-1.32-1.51-2.21-1.92-.89-.41-1.87-.62-2.93-.62-1.14,0-2.19,.28-3.11,.84-.92,.55-1.7,1.32-2.34,2.29-.63,.96-1.13,2.12-1.46,3.43-.34,1.31-.51,2.76-.51,4.3s.17,2.98,.49,4.28c.33,1.31,.81,2.46,1.43,3.43,.63,.98,1.41,1.76,2.34,2.31,.93,.55,1.99,.83,3.15,.83s2.2-.26,3.04-.76c.83-.5,1.52-1.18,2.05-2.01l.1-.15-1.88-2.05-.16,.27c-.3,.52-.72,.97-1.24,1.33-.51,.36-1.08,.53-1.74,.53-.74,0-1.36-.2-1.91-.61-.55-.41-1.02-.99-1.38-1.71-.37-.73-.65-1.59-.84-2.56-.19-.97-.28-2.02-.28-3.13s.09-2.17,.28-3.15c.19-.98,.46-1.84,.82-2.56,.36-.71,.81-1.28,1.35-1.7,.54-.41,1.16-.61,1.89-.61,.59,0,1.15,.14,1.67,.42,.52,.28,.98,.71,1.38,1.29l.17,.24,1.83-1.99v.36h3.87v18.07h3.04v-18.07h3.87v-2.67h-10.77v2.06Z"/><path class="cls-3" d="M488.25,127.45c-.62-.95-1.38-1.7-2.25-2.22-.88-.53-1.9-.79-3.03-.79s-2.18,.27-3.08,.79c-.9,.52-1.66,1.27-2.27,2.22-.6,.94-1.07,2.1-1.38,3.42-.31,1.32-.46,2.8-.46,4.39s.16,3.07,.48,4.39c.32,1.33,.79,2.48,1.4,3.44,.62,.96,1.38,1.72,2.26,2.25,.89,.54,1.91,.81,3.04,.81s2.14-.27,3.03-.81c.87-.53,1.63-1.29,2.25-2.25,.61-.95,1.09-2.11,1.4-3.44,.32-1.32,.48-2.8,.48-4.39s-.16-3.07-.48-4.39c-.32-1.33-.79-2.48-1.4-3.42Zm-5.28,15.86c-.66,0-1.22-.19-1.72-.59-.51-.41-.93-.97-1.27-1.68-.34-.72-.6-1.59-.77-2.57-.17-.99-.25-2.07-.25-3.2s.08-2.2,.25-3.2c.17-.99,.43-1.85,.77-2.58,.34-.71,.76-1.27,1.27-1.68,.5-.4,1.06-.59,1.72-.59s1.19,.19,1.67,.59c.5,.41,.92,.97,1.25,1.68,.34,.72,.61,1.59,.78,2.58,.18,1,.27,2.07,.27,3.19s-.09,2.2-.27,3.2c-.18,.99-.44,1.85-.78,2.58-.33,.71-.76,1.27-1.25,1.68-.49,.4-1.03,.59-1.67,.59Z"/><path class="cls-3" d="M502.06,135.6c.42-.26,.82-.62,1.17-1.07,.35-.44,.64-.99,.86-1.63,.22-.63,.33-1.38,.33-2.22,0-1.02-.15-1.91-.45-2.64-.3-.73-.71-1.34-1.24-1.8-.52-.46-1.14-.8-1.82-1.01-.68-.21-1.41-.31-2.18-.31h-5.49v20.74h2.98v-9.05h1.96l3.38,8.9,.06,.15h3.28l-3.84-9.61c.32-.09,.65-.25,.99-.45Zm-5.82-8.07h2.09c.38,0,.77,.05,1.15,.15,.36,.1,.69,.27,.96,.51,.28,.25,.51,.58,.69,.98,.18,.41,.27,.95,.27,1.6,0,1.08-.28,1.92-.82,2.5-.55,.58-1.27,.86-2.18,.86h-2.15v-6.61Z"/><polygon class="cls-3" points="506 149.32 508.43 149.32 510.63 141.53 507.76 141.53 506 149.32"/><rect class="cls-3" x="519.31" y="124.92" width="3.04" height="20.74"/><polygon class="cls-3" points="535.92 139.93 529.83 124.92 526.35 124.92 526.35 145.66 529.19 145.66 529.19 130.66 535.37 145.66 538.76 145.66 538.76 124.92 535.92 124.92 535.92 139.93"/><path class="cls-3" d="M546.16,129.58c.36-.71,.81-1.28,1.35-1.7,.54-.41,1.16-.61,1.89-.61,.59,0,1.15,.14,1.67,.42,.52,.28,.98,.71,1.38,1.29l.17,.24,1.92-2.09-.1-.15c-.57-.85-1.32-1.5-2.21-1.91-.89-.41-1.87-.62-2.93-.62-1.14,0-2.19,.28-3.11,.84-.92,.55-1.7,1.32-2.34,2.29-.63,.96-1.13,2.12-1.46,3.43-.34,1.31-.51,2.76-.51,4.3s.17,2.98,.49,4.28c.33,1.31,.81,2.46,1.43,3.43,.63,.98,1.41,1.76,2.34,2.31,.93,.55,1.99,.83,3.15,.83s2.2-.26,3.04-.76c.83-.5,1.52-1.18,2.05-2.01l.1-.15-1.88-2.05-.16,.27c-.3,.52-.72,.97-1.24,1.33-.51,.36-1.08,.53-1.74,.53-.74,0-1.36-.2-1.91-.61-.55-.41-1.02-.99-1.38-1.71-.37-.73-.65-1.59-.84-2.56-.19-.97-.28-2.02-.28-3.13s.09-2.17,.28-3.15c.19-.98,.46-1.84,.82-2.56Z"/><path class="cls-3" d="M559.27,142.52c-.36-.39-.81-.59-1.33-.59s-.97,.2-1.32,.59c-.34,.38-.52,.85-.52,1.38s.18,1.02,.52,1.39c.35,.37,.79,.56,1.31,.56s.97-.19,1.33-.56c.36-.37,.54-.84,.54-1.39s-.18-1-.53-1.39Z"/></g><rect class="cls-1" x="392.46" y="126.21" width="19.23" height="19.23" transform="translate(205.03 511.71) rotate(-81)"/><g><rect class="cls-1" x="510.04" y="34.35" width="14.06" height="14.06" rx="1.51" ry="1.51" transform="translate(1034.13 82.76) rotate(180)"/><g><rect class="cls-1" x="124.67" y="65.47" width="21.88" height="21.88" rx="2.36" ry="2.36"/><rect class="cls-1" x="192.69" y="28.41" width="14.06" height="14.06" rx="2.19" ry="2.19"/></g></g></svg>